<svg width="42" height="40" viewBox="0 0 42 40" fill="none" xmlns="http://www.w3.org/2000/svg">
<path d="M28.8709 10.396C27.8474 10.396 27.0798 11.1386 27.0798 12.1287C27.0798 13.1188 27.8474 13.8613 28.8709 13.8613C29.8944 13.8613 30.662 13.1188 30.662 12.1287C30.662 11.1386 29.8944 10.396 28.8709 10.396Z" fill="#DD7B20" stroke="#DD7B20"/>
<path d="M20.8109 12.6238C16.589 12.6238 13.2627 15.9654 13.2627 19.9258C13.2627 23.8862 16.7169 27.2277 20.8109 27.2277C24.9048 27.2277 28.359 23.8862 28.359 19.9258C28.359 15.9654 25.0327 12.6238 20.8109 12.6238ZM20.8109 24.6287C18.1242 24.6287 15.9493 22.5248 15.9493 19.9258C15.9493 17.3268 18.1242 15.2228 20.8109 15.2228C23.4975 15.2228 25.6724 17.3268 25.6724 19.9258C25.6724 22.5248 23.4975 24.6287 20.8109 24.6287Z" fill="#DD7B20" stroke="#DD7B20"/>
<path d="M26.9518 4.95044H14.798C9.55266 4.95044 5.45874 8.91084 5.45874 13.8613V25.6188C5.45874 30.5693 9.55266 34.5297 14.6701 34.5297H26.8239C31.9413 34.5297 36.0352 30.5693 36.0352 25.6188V13.8613C36.1631 8.91084 32.0692 4.95044 26.9518 4.95044ZM33.2206 25.7425C33.2206 29.0841 30.4061 31.9306 26.8239 31.9306H14.6701C11.2158 31.9306 8.27331 29.2079 8.27331 25.7425V13.9851C8.27331 10.6435 11.0879 7.79698 14.6701 7.79698H26.8239C30.2781 7.79698 33.2206 10.5197 33.2206 13.9851V25.7425Z" fill="#DD7B20" stroke="#DD7B20"/>
</svg>
