<svg width="33" height="33" viewBox="0 0 33 33" fill="none" xmlns="http://www.w3.org/2000/svg">
<g clip-path="url(#clip0_23_43)">
<path d="M7.62364 10.9653H1.04876C0.756951 10.9653 0.520508 11.1942 0.520508 11.4764V31.9098C0.520508 32.192 0.756951 32.4208 1.04876 32.4208H7.62364C7.91544 32.4208 8.15189 32.192 8.15189 31.9098V11.4764C8.15189 11.1942 7.91544 10.9653 7.62364 10.9653Z" fill="#DD7B20" stroke="#DD7B20" stroke-width="0.645161"/>
<path d="M4.3386 0.807373C1.94628 0.807373 0 2.68813 0 4.99988C0 7.31265 1.94628 9.19412 4.3386 9.19412C6.72903 9.19412 8.67372 7.31254 8.67372 4.99988C8.67382 2.68813 6.72903 0.807373 4.3386 0.807373Z" fill="#DD7B20" stroke="#DD7B20" stroke-width="0.645161"/>
<path d="M24.3474 10.4575C21.7067 10.4575 19.7546 11.5557 18.5706 12.8035V11.4764C18.5706 11.1942 18.3342 10.9654 18.0424 10.9654H11.7458C11.454 10.9654 11.2175 11.1942 11.2175 11.4764V31.9098C11.2175 32.1921 11.454 32.4208 11.7458 32.4208H18.3063C18.5981 32.4208 18.8345 32.1921 18.8345 31.9098V21.8C18.8345 18.3932 19.7911 17.066 22.246 17.066C24.9195 17.066 25.132 19.1937 25.132 21.9753V31.9099C25.132 32.1922 25.3684 32.4209 25.6602 32.4209H32.2232C32.515 32.4209 32.7514 32.1922 32.7514 31.9099V20.7018C32.7514 15.6361 31.7529 10.4575 24.3474 10.4575Z" fill="#DD7B20" stroke="#DD7B20" stroke-width="0.645161"/>
</g>
<defs>
<clipPath id="clip0_23_43">
<rect width="32.7513" height="31.6832" fill="white" transform="translate(0 0.772461)"/>
</clipPath>
</defs>
</svg>
