<svg width="66" height="66" viewBox="0 0 66 66" fill="none" xmlns="http://www.w3.org/2000/svg">
<g clip-path="url(#clip0_23_77)">
<path d="M65.7229 41.665C62.8084 38.5356 58.5735 36.6535 53.1036 36.0443C57.2265 31.7838 59.4931 26.5533 59.3829 21.4067C59.371 20.8513 58.9219 20.4046 58.3666 20.3956C53.2307 20.3118 46.9023 22.4774 41.7478 26.0047C41.7482 25.9482 41.7499 25.8915 41.7499 25.8351C41.7499 18.6493 38.8098 11.9383 33.6834 7.42269C33.293 7.07877 32.7077 7.07877 32.3173 7.42269C27.1909 11.9382 24.2507 18.6493 24.2507 25.8349C24.2507 25.8849 24.2522 25.9351 24.2525 25.9851C19.1765 22.4681 12.8564 20.3122 7.634 20.3955C7.07842 20.4045 6.62944 20.8511 6.61771 21.4066C6.50749 26.5533 8.77392 31.7836 12.8969 36.0441C7.42672 36.6533 3.19163 38.5356 0.277181 41.6652C-0.0923937 42.0619 -0.0923937 42.6769 0.277181 43.0737C4.38646 47.4861 10.4879 50.0168 17.0168 50.0168C19.2383 50.0168 21.2945 49.8429 23.1842 49.4993C23.1604 49.6956 23.1484 49.8912 23.1484 50.0856C23.1484 53.5711 26.619 56.7405 32.6701 58.781C32.7772 58.8171 32.8887 58.8351 33.0002 58.8351C33.1117 58.8351 33.2234 58.8171 33.3304 58.781C39.3815 56.7405 42.852 53.5712 42.852 50.0856C42.852 49.8913 42.8391 49.6955 42.8152 49.4989C44.7051 49.8426 46.7615 50.0165 48.9832 50.0165C55.5123 50.0165 61.6137 47.4859 65.7229 43.0735C66.0925 42.6768 66.0925 42.0618 65.7229 41.665ZM41.5903 28.6709C46.2178 25.1187 52.3585 22.7137 57.3027 22.479C57.0726 27.2925 54.5252 32.147 50.1984 35.9622C51.922 33.4869 52.8315 30.7387 52.77 28.0183C52.7575 27.463 52.3081 27.0169 51.7526 27.0084C48.1442 26.9522 44.9558 27.3962 41.4753 29.5761C41.5194 29.2749 41.5568 28.973 41.5903 28.6709ZM41.6113 31.9728C44.7347 29.7315 47.4741 29.1293 50.6729 29.075C50.4063 32.2818 48.5472 35.5023 45.4588 38.046C43.0824 40.0033 40.2076 41.3694 37.2091 42.0163C40.1344 39.6339 41.7499 36.6807 41.7499 33.551C41.7498 33.0193 41.703 32.4926 41.6113 31.9728ZM33.0002 9.60328C37.2585 13.7089 39.683 19.5702 39.683 25.8352C39.683 26.4073 39.6616 26.9812 39.6197 27.5545C38.2049 25.6828 36.1187 24.0225 33.459 22.7047C33.1699 22.5613 32.8305 22.5613 32.5414 22.7047C29.8817 24.0225 27.7956 25.6828 26.3807 27.5545C26.3387 26.9812 26.3175 26.4073 26.3175 25.8352C26.3175 19.5701 28.7419 13.7089 33.0002 9.60328ZM33.0002 24.7905C37.2552 27.0296 39.683 30.2021 39.683 33.5511C39.683 36.9003 37.2552 40.0726 33.0002 42.3118C28.7453 40.0726 26.3175 36.9003 26.3175 33.5511C26.3175 30.202 28.7453 27.0295 33.0002 24.7905ZM28.7932 42.018C25.7943 41.3714 22.9182 40.0034 20.5415 38.0459C17.4524 35.5018 15.5932 32.28 15.3274 29.0725C18.7006 29.1148 21.2916 29.6948 24.3898 31.9688C24.2976 32.4899 24.2506 33.0177 24.2506 33.551C24.2507 36.6815 25.8669 39.6353 28.7932 42.018ZM8.69761 22.4765C13.7765 22.6942 19.7997 25.0541 24.4098 28.6671C24.4425 28.963 24.4791 29.2584 24.522 29.5531C21.1223 27.3745 18.0962 26.9493 14.2478 27.0086C13.6924 27.0171 13.2431 27.4631 13.2305 28.0186C13.169 30.7389 14.0784 33.4875 15.8022 35.9626C11.4744 32.1463 8.92668 27.2909 8.69761 22.4765ZM17.0168 47.9501C11.4227 47.95 6.1878 45.9303 2.49025 42.3769C5.36035 39.7296 9.53834 38.2449 14.9412 37.9481C19.3409 41.6426 24.8363 43.9248 30.3937 44.4098C27.2001 46.7602 22.7153 47.9501 17.0168 47.9501ZM33.0002 56.7091C28.1178 54.999 25.2152 52.5358 25.2152 50.0857C25.2152 49.7297 25.2828 49.3687 25.4208 48.9916C28.4668 48.1511 31.0008 46.7955 33.0001 44.9314C34.9988 46.795 37.5321 48.1503 40.5771 48.9908C40.716 49.3704 40.7853 49.7311 40.7853 50.0858C40.7853 52.5358 37.8828 54.999 33.0002 56.7091ZM48.9832 47.9496C43.2849 47.9496 38.8002 46.7597 35.6066 44.4097C41.1639 43.9244 46.6599 41.6422 51.0594 37.9478C56.4618 38.2446 60.6397 39.7294 63.5098 42.3766C59.8124 45.93 54.5775 47.9496 48.9832 47.9496Z" fill="#EA2D2D" stroke="#EA2D2D" stroke-width="0.390626"/>
</g>
<defs>
<clipPath id="clip0_23_77">
<rect width="66" height="66" fill="white"/>
</clipPath>
</defs>
</svg>
